PathFileType	4	(X/Y/Z)	pose_F01_0-94.trc
DataRate	CameraRate	NumFrames	NumMarkers	Units	OrigDataRate	OrigDataStartFrame	OrigNumFrames
30	30	12	21	m	30	31	94
Frame#	Time	CHip			RHip			RKnee			RAnkle			RBigToe			RSmallToe			RHeel			LHip			LKnee			LAnkle			LBigToe			LSmallToe			LHeel			Neck			Nose			RShoulder			RElbow			RWrist			LShoulder			LElbow			LWrist			
		X1	Y1	Z1	X2	Y2	Z2	X3	Y3	Z3	X4	Y4	Z4	X5	Y5	Z5	X6	Y6	Z6	X7	Y7	Z7	X8	Y8	Z8	X9	Y9	Z9	X10	Y10	Z10	X11	Y11	Z11	X12	Y12	Z12	X13	Y13	Z13	X14	Y14	Z14	X15	Y15	Z15	X16	Y16	Z16	X17	Y17	Z17	X18	Y18	Z18	X19	Y19	Z19	X20	Y20	Z20	X21	Y21	Z21	
31	1.0333333333333334	-0.27949371497459446	1.8789368241583386	-0.6433814245167535	-0.29506437466642593	1.8670977584936543	-0.5656545998669545	-0.2623334846356691	1.7126861254168244	-0.41406628357860437													-0.26761446845826914	1.8834673508764532	-0.7091682019547413	-0.25387259118227046	1.7163349301173032	-0.7071641754880265													-0.279547823412392	2.036186165864917	-0.6384618074123336	-0.2646098915707756	2.0872714702825124	-0.5945474995759742	-0.29619289371656615	2.026238803484635	-0.5410175094829316	-1.5455707861506398	1.8624019100137421	0.7416781336808586	-0.3193271340714741	1.8995997725031741	-0.5133660358456675	-0.25914385535211737	2.0442429933056725	-0.73174425255063	-0.23915841612839517	1.9900806202941705	-0.8016498658367018	-0.20353260110611454	1.9848363881686213	-0.7984683885810423
32	1.0666666666666667	-0.2803492769274427	1.8718220403030874	-0.6322033972361183	-0.29475101761040673	1.8616623012686875	-0.5602948231616435	-0.2623334846356691	1.7126861254168244	-0.41406628357860437													-0.26673462334774056	1.8810457685810982	-0.7054393233347387	-0.25387259118227046	1.7163349301173032	-0.7071641754880265													-0.2758826365701097	2.0316804914244955	-0.6170368926928735	-0.26309034917764623	2.082022234893427	-0.5626914525631183	-0.2941954135042335	2.0210001540286826	-0.5255009575952285	-1.5455707861506398	1.8624019100137421	0.7416781336808586	-0.3193271340714741	1.8995997725031741	-0.5133660358456675	-0.2561031962877737	2.0437564700690567	-0.7028641642492319	-0.7762751235673361	1.9290660939814537	-0.19617795147575245	-0.8251903301084444	1.929858849219099	-0.059321477729076144
33	1.1	-0.2812048388802909	1.864707256447836	-0.621025369955483	-0.29443766055438747	1.8562268440437204	-0.5549350464563325	-0.2623334846356691	1.7126861254168244	-0.41406628357860437													-0.26636262312514414	1.8751999392905356	-0.6933047662221168	-0.25387259118227046	1.7163349301173032	-0.7071641754880265													-0.2733357098633069	2.023802259499392	-0.5894046385732185	-0.2631623623224109	2.076768681089609	-0.5277693165461849	-0.29417849218538944	2.0110642627303674	-0.4985647852870297	-1.5455707861506398	1.8624019100137421	0.7416781336808586	-0.3193271340714741	1.8995997725031741	-0.5133660358456675	-0.25204325311372017	2.03748824824684	-0.6780054448803048	-1.313391831006277	1.8680515676687368	0.409293962885197	-1.4468480591107742	1.8748813102695767	0.6798254331228901
34	1.1333333333333333	-0.28206040083313916	1.8575924725925848	-0.6098473426748477	-0.29412430349836827	1.8507913868187535	-0.5495752697510216	-0.2623334846356691	1.7126861254168244	-0.41406628357860437													-0.2673159922252562	1.864135632703956	-0.6752419898761621	-0.25387259118227046	1.7163349301173032	-0.7071641754880265													-0.2729182999735159	2.006650351744107	-0.5499362626610177	-0.2533030992636056	2.0550039861480682	-0.491126478243928	-0.2949180608574895	1.9976937140947466	-0.4733674314413898	-1.5455707861506398	1.8624019100137421	0.7416781336808586	-0.3193271340714741	1.8995997725031741	-0.5133660358456675	-0.2426440597549918	2.0217256823238783	-0.6250040503936978	-1.4879968600086035	1.8626938148656063	0.7327498727415102	-0.21055106825692993	1.9156954749727617	-0.5250678648193237
35	1.1666666666666667	-0.28560759074905906	1.8466324535273837	-0.592543840329188	-0.29686786908792984	1.8415083896303495	-0.5306928194269838	-0.2623334846356691	1.7126861254168244	-0.41406628357860437													-0.269841556147003	1.85156536197232	-0.6573808726531833	-0.25387259118227046	1.7163349301173032	-0.7071641754880265													-0.26930746427196384	1.9871058135740531	-0.5168431933174972	-0.25436739222686783	2.0275563906052985	-0.4384264152938887	-1.7223569830914867	1.883282361901446	1.1041851443776294	-1.5455707861506398	1.8624019100137421	0.7416781336808586	-0.3193271340714741	1.8995997725031741	-0.5133660358456675	-0.24110794513465897	1.9958145797310827	-0.5865902919334426	-0.22169839942254524	1.91225150588255	-0.5397807101490681	-0.21525944618420215	1.838119148870893	-0.4501118386383172
36	1.2	-0.289154780664979	1.8356724344621826	-0.5752403379835284	-0.2996114346774914	1.8322253924419456	-0.5118103691029459	-0.2623334846356691	1.7126861254168244	-0.41406628357860437													-0.27236712006874975	1.8389950912406843	-0.6395197554302045	-0.25387259118227046	1.7163349301173032	-0.7071641754880265													-1.6477550969779626	1.8744828993451084	0.982015055530951	-0.25262142483768557	2.006098707849708	-0.42047611705113297	-0.30463132916048735	1.9637890479580022	-0.4314133642383061	-1.5455707861506398	1.8624019100137421	0.7416781336808586	-0.3193271340714741	1.8995997725031741	-0.5133660358456675	-0.24583282255612007	1.9786342831900232	-0.5715681134559744	-0.2239460375036008	1.8946284838465601	-0.5172997072318297	-0.20737076572524898	1.8093475478125292	-0.4230193153273853
37	1.2333333333333334	-0.29165441320583124	1.8383659371435712	-0.5644033023568261	-0.3029104844614942	1.8327320424013356	-0.5041144220327147	-0.2623334846356691	1.7126861254168244	-0.41406628357860437													-0.2823351484371502	1.8411229565115026	-0.6253939949948667	-0.25387259118227046	1.7163349301173032	-0.7071641754880265													-0.2761182306661692	1.9650793081756606	-0.48268149882317973	-0.2530996063998697	1.9944030880146502	-0.4111032064782134	-0.30053058550139605	1.9593049916122318	-0.41020135106547273	-1.5455707861506398	1.8624019100137421	0.7416781336808586	-0.3193271340714741	1.8995997725031741	-0.5133660358456675	-0.24670456590476464	1.9739163956048915	-0.5633389726014284	-0.23329419086894285	1.888310726131846	-0.5198772510142036	-0.20876895995361783	1.8036973236760718	-0.4345553633880606
38	1.2666666666666666	-0.29007313397079204	1.839391535745964	-0.5617693287929822	-0.29951576923410556	1.834671023944913	-0.5034515070194598	-0.2623334846356691	1.7126861254168244	-0.41406628357860437													-0.27538863120796697	1.84499781180203	-0.63259220577912	-0.25387259118227046	1.7163349301173032	-0.7071641754880265													-1.686055278621996	1.8830100107878287	1.0517276672439833	-0.2544864798806708	1.991486347100575	-0.4145227100833195	-0.300699655966336	1.9586833804262098	-0.4099738123694575	-1.5455707861506398	1.8624019100137421	0.7416781336808586	-0.3193271340714741	1.8995997725031741	-0.5133660358456675	-0.24570121907883608	1.9770513536461767	-0.569512072507163	-0.23843326123924333	1.892777063864891	-0.5457972917189651	-0.21383019451732108	1.8084464202768349	-0.46222090596133475
39	1.3	-0.2858030547211006	1.8459931232880766	-0.5751948460060885	-0.29898274531730235	1.8390080416774177	-0.5065570890357853	-0.2623334846356691	1.7126861254168244	-0.41406628357860437													-0.27198473200777135	1.8528150411185775	-0.6407627099004352	-0.25387259118227046	1.7163349301173032	-0.7071641754880265													-0.2762111083191751	1.9796639457701863	-0.49409545883448547	-0.25381804152764137	1.9998815970147739	-0.4303970854594999	-0.3002197727231628	1.9658653988249633	-0.41762454614557787	-1.5455707861506398	1.8624019100137421	0.7416781336808586	-0.3193271340714741	1.8995997725031741	-0.5133660358456675	-0.2473175573387935	1.9927053492094273	-0.5784956718959438	-0.22903643617765493	1.918126647038544	-0.601460688126557	-0.2065501721311651	1.8421469492096225	-0.5062501967689341
40	1.3333333333333333	-0.2858121982035877	1.8501951286658644	-0.5757694813993542	-0.29844972140049914	1.843345059409922	-0.5096626710521108	-0.2623334846356691	1.7126861254168244	-0.41406628357860437													-0.2699420510237707	1.8581076214621677	-0.6435490500073958	-0.25387259118227046	1.7163349301173032	-0.7071641754880265													-0.2723274540669806	1.9890461134935147	-0.508982206835727	-0.25288591195963034	2.01163871221832	-0.44685171168831705	-1.7774557436714133	1.8857899123604138	1.2127654642191674	-1.5455707861506398	1.8624019100137421	0.7416781336808586	-0.3193271340714741	1.8995997725031741	-0.5133660358456675	-0.2458934810704201	2.0060215602475795	-0.5947396712798082	-1.3850573380274271	1.8641311389459385	0.5667527523652889	-0.18192040518242444	1.8858117889337567	-0.5734032521940665
41	1.3666666666666667	-0.2833729514500126	1.8502002806158302	-0.5814350797988801	-0.29563242148744795	1.843278969746483	-0.5137953522660406	-0.2623334846356691	1.7126861254168244	-0.41406628357860437													-0.2655888823411956	1.8600584614886166	-0.6541278823040477	-0.25387259118227046	1.7163349301173032	-0.7071641754880265													-0.2730289891396026	1.9961918788639312	-0.5301240658886197	-0.2490151270438786	2.0246588839055963	-0.4796134744287649	-0.29444110217579433	1.9786656383265036	-0.43524474116244877	-1.5455707861506398	1.8624019100137421	0.7416781336808586	-0.3193271340714741	1.8995997725031741	-0.5133660358456675	-0.24959311479321644	2.014040995661159	-0.6274928686063048	-1.3347587845088875	1.86471996050727	0.48117168235206337	-0.17180172512314024	1.9248753110289678	-0.6166955651224637
42	1.4	-0.2809337046964375	1.8502054325657957	-0.5871006781984061	-0.2928151215743967	1.843212880083044	-0.5179280334799703	-0.2623334846356691	1.7126861254168244	-0.41406628357860437													-0.2612357136586204	1.8620093015150656	-0.6647067146006995	-0.25387259118227046	1.7163349301173032	-0.7071641754880265													-0.27072257099751285	2.0043327843605567	-0.5417828534136504	-0.2464868967318719	2.041589661226368	-0.5094633128787986	-0.2912555292553765	1.9840895415732034	-0.4431283252631274	-1.5455707861506398	1.8624019100137421	0.7416781336808586	-0.3193271340714741	1.8995997725031741	-0.5133660358456675	-0.24613187897521624	2.0229110517144595	-0.6366197310439721	-0.20921945896212438	1.9894836317262614	-0.7350979557038305	-0.19162690404566746	1.9672646974747157	-0.7068682924591764
